<svg width="729" height="599" viewBox="0 0 729 599" fill="none" xmlns="http://www.w3.org/2000/svg">
<g clip-path="url(#clip0_190_60)">
<path d="M592.675 60.1965C597.328 41.218 592.904 19.0845 577.871 6.60107C577.577 27.8489 569.777 48.308 555.851 64.3584C550.458 70.529 543.816 76.8305 543.555 85.0216C543.392 90.1183 545.88 95.0136 549.309 98.7883C552.737 102.563 557.062 105.388 561.336 108.17L561.964 109.277C575.721 95.4001 588.022 79.1751 592.675 60.1965Z" fill="#F0F0F0"/>
<path d="M577.569 6.87828C583.334 21.9899 584.192 38.534 580.019 54.1607C579.181 57.5407 577.815 60.7674 575.971 63.722C574.083 66.5422 571.473 68.8051 568.414 70.2757C565.59 71.7043 562.535 72.8384 560.107 74.9287C558.879 76.0171 557.896 77.3526 557.222 78.8477C556.547 80.3427 556.196 81.9635 556.191 83.6037C556.074 87.6903 557.432 91.5754 558.892 95.3286C560.514 99.4957 562.264 103.798 561.889 108.361C561.843 108.914 562.704 108.952 562.749 108.4C563.401 100.462 558.01 93.757 557.155 86.0577C556.756 82.4651 557.437 78.7305 560.094 76.1111C562.416 73.8206 565.565 72.6484 568.438 71.2267C571.443 69.8358 574.062 67.7302 576.066 65.0939C578.054 62.2426 579.542 59.0739 580.466 55.7234C582.668 48.2135 583.676 40.4041 583.452 32.5813C583.246 23.6517 581.514 14.8232 578.331 6.47767C578.134 5.96121 577.373 6.3652 577.569 6.87828Z" fill="white"/>
<path d="M581.659 49.2081C584.376 49.5522 587.126 48.9194 589.42 47.4226C591.713 45.9259 593.4 43.6627 594.178 41.0372C594.334 40.5054 593.515 40.2384 593.359 40.7709C592.639 43.2171 591.067 45.3251 588.929 46.7145C586.79 48.1039 584.226 48.6832 581.698 48.3477C581.148 48.2755 581.113 49.1362 581.659 49.2081Z" fill="white"/>
<path d="M569.942 69.7401C566.473 65.3465 564.787 59.8066 565.221 54.2253C565.264 53.6724 564.404 53.6341 564.361 54.1863C563.92 59.9952 565.686 65.7567 569.306 70.321C569.651 70.7558 570.285 70.1726 569.942 69.7401Z" fill="white"/>
<path d="M582.209 24.1295C581.13 24.2154 580.047 24.032 579.056 23.5957C578.066 23.1594 577.199 22.4839 576.534 21.6299C576.194 21.1909 575.561 21.7746 575.898 22.2107C576.637 23.1508 577.595 23.8957 578.689 24.3801C579.782 24.8646 580.977 25.0739 582.17 24.9899C582.283 24.9914 582.393 24.9497 582.476 24.8735C582.56 24.7972 582.611 24.692 582.62 24.5792C582.624 24.4652 582.584 24.3541 582.507 24.2699C582.43 24.1857 582.323 24.1352 582.209 24.1295Z" fill="white"/>
<path d="M512.861 18.8872C513.065 19.1673 513.27 19.4475 513.472 19.7345C516.199 23.5148 518.614 27.5105 520.694 31.682C520.86 32.002 521.024 32.3287 521.18 32.6528C526.084 42.7564 529.07 53.6826 529.986 64.8762C530.346 69.3307 530.367 73.8061 530.048 78.2637C529.607 84.4199 528.64 91.0598 530.212 96.832C530.369 97.4361 530.564 98.0298 530.795 98.6098L560.564 109.957C560.644 109.949 560.723 109.947 560.804 109.939L561.972 110.447C562.004 110.218 562.033 109.98 562.065 109.751C562.085 109.619 562.098 109.484 562.117 109.351C562.128 109.262 562.138 109.172 562.153 109.093C562.157 109.063 562.16 109.033 562.161 109.01C562.176 108.93 562.182 108.854 562.194 108.781C562.359 107.452 562.514 106.119 562.661 104.782C562.663 104.775 562.663 104.775 562.659 104.766C563.873 94.5921 563.875 84.3103 562.666 74.1359C562.626 73.8328 562.589 73.523 562.535 73.2147C561.909 68.6764 560.914 64.1968 559.558 59.8207C558.808 57.4268 557.938 55.0725 556.95 52.7667C554.385 46.8138 550.9 41.3013 546.623 36.4313C538.095 26.7242 526.557 19.8527 513.834 18.9468C513.508 18.9239 513.189 18.9033 512.861 18.8872Z" fill="#F0F0F0"/>
<path d="M512.784 19.2906C526.486 27.8852 537.131 40.5786 543.208 55.5677C544.573 58.7713 545.425 62.1701 545.732 65.639C545.922 69.0279 545.201 72.4057 543.644 75.4217C542.249 78.2629 540.493 81.0076 539.812 84.1385C539.488 85.7464 539.507 87.4046 539.868 89.0045C540.23 90.6045 540.925 92.1099 541.909 93.4222C544.276 96.7558 547.7 99.0401 551.125 101.158C554.928 103.509 558.916 105.891 561.364 109.759C561.66 110.228 562.37 109.74 562.074 109.272C557.816 102.542 549.474 100.434 544.156 94.8014C541.675 92.1731 539.97 88.7811 540.514 85.0904C540.989 81.8631 542.798 79.0312 544.236 76.1666C545.798 73.2467 546.621 69.9888 546.634 66.6774C546.504 63.204 545.784 59.7781 544.506 56.5462C541.742 49.2242 537.845 42.3822 532.956 36.2708C527.416 29.2651 520.718 23.2587 513.152 18.5117C512.683 18.2181 512.319 18.9989 512.784 19.2906Z" fill="white"/>
<path d="M541.535 50.6261C543.911 49.2651 545.727 47.1037 546.657 44.5279C547.587 41.9521 547.571 39.1296 546.612 36.5644C546.416 36.0461 545.601 36.326 545.797 36.8451C546.695 39.2321 546.709 41.8613 545.838 44.2581C544.968 46.6549 543.269 48.6615 541.048 49.9157C540.566 50.1888 541.056 50.8977 541.535 50.6261Z" fill="white"/>
<path d="M544.541 74.0741C539.126 72.6547 534.445 69.2463 531.431 64.5287C531.133 64.061 530.423 64.5485 530.721 65.0156C533.866 69.919 538.745 73.456 544.383 74.9207C544.921 75.06 545.076 74.2126 544.541 74.0741Z" fill="white"/>
<path d="M526.875 30.271C526.066 30.9892 525.09 31.495 524.036 31.743C522.983 31.991 521.884 31.9735 520.839 31.692C520.304 31.546 520.149 32.3935 520.681 32.5386C521.837 32.8442 523.051 32.8621 524.215 32.5907C525.38 32.3192 526.46 31.7667 527.362 30.9814C527.453 30.9145 527.516 30.8154 527.536 30.7042C527.557 30.593 527.535 30.4781 527.474 30.3827C527.409 30.289 527.31 30.2247 527.198 30.2038C527.086 30.1828 526.97 30.207 526.875 30.271Z" fill="white"/>
<path d="M473.5 447.587C373.696 447.587 292.5 366.39 292.5 266.587C292.5 166.783 373.696 85.5867 473.5 85.5867C484.051 85.5854 494.583 86.4979 504.977 88.3142C505.107 88.3366 505.23 88.3843 505.342 88.4546C505.453 88.525 505.549 88.6165 505.625 88.7241C505.7 88.8317 505.754 88.9531 505.783 89.0815C505.811 89.2098 505.815 89.3426 505.792 89.4721C505.769 89.6017 505.721 89.7255 505.65 89.8364C505.58 89.9474 505.488 90.0433 505.38 90.1187C505.272 90.1941 505.151 90.2476 505.022 90.2759C504.894 90.3043 504.761 90.307 504.632 90.284C494.352 88.488 483.936 87.5855 473.5 87.5867C374.799 87.5867 294.5 167.885 294.5 266.587C294.5 365.288 374.799 445.587 473.5 445.587C572.201 445.587 652.5 365.288 652.5 266.587C652.544 221.975 635.886 178.962 605.805 146.018C605.628 145.822 605.536 145.563 605.549 145.299C605.562 145.035 605.679 144.787 605.874 144.609C606.069 144.431 606.327 144.338 606.591 144.349C606.855 144.36 607.104 144.476 607.283 144.67C637.7 177.983 654.545 221.476 654.5 266.587C654.5 366.39 573.304 447.587 473.5 447.587Z" fill="#E4E4E4"/>
<path d="M553.307 147.663C573.085 147.663 589.118 131.63 589.118 111.852C589.118 92.0744 573.085 76.0413 553.307 76.0413C533.529 76.0413 517.496 92.0744 517.496 111.852C517.496 131.63 533.529 147.663 553.307 147.663Z" fill="black"/>
<path d="M548.422 130.49C547.804 130.49 547.194 130.346 546.641 130.07C546.088 129.793 545.607 129.391 545.236 128.896L535.466 115.87C535.152 115.451 534.924 114.975 534.794 114.468C534.664 113.962 534.635 113.434 534.709 112.916C534.783 112.399 534.959 111.9 535.225 111.45C535.492 111 535.844 110.607 536.263 110.293C536.681 109.979 537.157 109.751 537.664 109.621C538.171 109.491 538.698 109.463 539.216 109.537C539.734 109.611 540.232 109.786 540.682 110.052C541.132 110.319 541.526 110.671 541.839 111.09L548.231 119.612L564.647 94.9874C565.235 94.112 566.146 93.5052 567.18 93.3C568.214 93.0949 569.287 93.3081 570.165 93.8929C571.042 94.4778 571.652 95.3866 571.86 96.4201C572.068 97.4537 571.859 98.5277 571.276 99.4068L551.737 128.716C551.383 129.246 550.908 129.684 550.351 129.992C549.793 130.301 549.17 130.471 548.533 130.489C548.496 130.489 548.459 130.49 548.422 130.49Z" fill="white"/>
<path d="M468.843 238.498L413.62 84.8668L415.02 84.3634L404.864 56.1066L403.464 56.6105L386.507 9.44105C385.874 7.67932 384.9 6.05956 383.641 4.67427C382.382 3.28897 380.862 2.16526 379.169 1.3673C377.475 0.569345 375.641 0.112754 373.771 0.0236156C371.901 -0.0655224 370.032 0.214534 368.27 0.847789L268.438 36.733C266.676 37.3662 265.056 38.3403 263.671 39.5995C262.285 40.8586 261.162 42.3784 260.364 44.0719C259.566 45.7654 259.109 47.5995 259.02 49.4694C258.931 51.3394 259.211 53.2086 259.844 54.9703L271.666 87.8597L269.453 88.7118L277 108.309L278.772 107.627L280.339 111.986L278.453 112.712L286 132.309L287.444 131.753L342.18 284.027C342.81 285.791 343.783 287.413 345.041 288.8C346.3 290.187 347.82 291.313 349.514 292.111C351.209 292.909 353.044 293.365 354.915 293.453C356.786 293.54 358.656 293.258 360.418 292.621L460.25 256.736C463.805 255.453 466.706 252.812 468.317 249.393C469.928 245.974 470.118 242.056 468.843 238.498Z" fill="#3F3D56"/>
<path d="M355.167 287.557C353.761 287.554 352.391 287.118 351.241 286.309C350.092 285.499 349.219 284.355 348.743 283.033L265.538 51.5588C264.926 49.8539 265.015 47.9755 265.787 46.3367C266.56 44.6979 267.951 43.4329 269.656 42.82L290.897 35.1847L290.865 35.9279C290.811 37.218 291.074 38.5017 291.633 39.6659C292.191 40.8301 293.028 41.8391 294.068 42.604C295.108 43.3688 296.321 43.8662 297.598 44.0521C298.876 44.238 300.18 44.1068 301.395 43.6701L348.536 26.7253C349.674 26.204 350.673 25.4221 351.452 24.4429C352.232 23.4638 352.77 22.3148 353.024 21.0891C353.274 19.8838 353.236 18.6363 352.913 17.4484C352.589 16.2606 351.99 15.166 351.163 14.2541L350.665 13.7009L372.606 5.81367C374.311 5.20338 376.189 5.29418 377.827 6.06617C379.465 6.83816 380.731 8.22832 381.345 9.93181L460.73 230.778C462.35 235.302 462.109 240.284 460.061 244.631C458.013 248.978 454.324 252.335 449.803 253.966L357.482 287.151C356.74 287.419 355.956 287.556 355.167 287.557Z" fill="white"/>
<path d="M347.033 123.377C361.945 123.377 374.033 111.289 374.033 96.3772C374.033 81.4655 361.945 69.3772 347.033 69.3772C332.122 69.3772 320.033 81.4655 320.033 96.3772C320.033 111.289 332.122 123.377 347.033 123.377Z" fill="black"/>
<path d="M413.939 135.642L320.437 169.252C320.145 169.357 319.835 169.404 319.524 169.39C319.214 169.376 318.91 169.301 318.629 169.168C318.348 169.036 318.095 168.85 317.886 168.62C317.677 168.391 317.515 168.122 317.41 167.83C317.305 167.537 317.259 167.227 317.274 166.917C317.289 166.607 317.365 166.303 317.498 166.022C317.63 165.741 317.817 165.489 318.047 165.281C318.277 165.072 318.547 164.911 318.839 164.807L412.341 131.197C412.93 130.987 413.579 131.019 414.144 131.286C414.709 131.553 415.145 132.034 415.357 132.622C415.569 133.211 415.538 133.859 415.272 134.425C415.006 134.991 414.527 135.429 413.939 135.642Z" fill="#E6E6E6"/>
<path d="M386.172 156.952L355.416 168.007C355.124 168.113 354.814 168.16 354.504 168.145C354.194 168.131 353.89 168.056 353.609 167.924C353.328 167.791 353.075 167.605 352.866 167.375C352.657 167.146 352.496 166.877 352.391 166.585C352.286 166.293 352.239 165.983 352.254 165.672C352.269 165.362 352.345 165.058 352.478 164.777C352.61 164.496 352.797 164.245 353.027 164.036C353.257 163.827 353.526 163.666 353.819 163.562L384.574 152.507C385.164 152.295 385.813 152.326 386.38 152.593C386.946 152.86 387.384 153.341 387.596 153.93C387.808 154.52 387.777 155.169 387.51 155.736C387.243 156.303 386.761 156.74 386.172 156.952Z" fill="#E6E6E6"/>
<path d="M393.487 177.303L362.732 188.358C362.44 188.463 362.13 188.509 361.82 188.494C361.51 188.48 361.207 188.404 360.926 188.272C360.646 188.14 360.394 187.953 360.185 187.724C359.976 187.494 359.815 187.226 359.71 186.934C359.605 186.642 359.559 186.333 359.574 186.023C359.588 185.713 359.664 185.409 359.796 185.129C359.928 184.848 360.115 184.596 360.344 184.388C360.574 184.179 360.842 184.018 361.134 183.913L391.889 172.857C392.479 172.645 393.128 172.676 393.695 172.943C394.262 173.21 394.699 173.692 394.911 174.281C395.123 174.871 395.092 175.52 394.825 176.087C394.558 176.653 394.077 177.091 393.487 177.303Z" fill="#E6E6E6"/>
<path d="M397.234 187.726L366.478 198.781C366.186 198.887 365.876 198.934 365.566 198.92C365.256 198.906 364.951 198.831 364.67 198.699C364.389 198.567 364.136 198.38 363.927 198.151C363.718 197.921 363.556 197.652 363.451 197.36C363.346 197.067 363.3 196.757 363.315 196.447C363.33 196.137 363.406 195.832 363.539 195.551C363.671 195.271 363.858 195.019 364.089 194.81C364.319 194.602 364.588 194.441 364.881 194.336L395.636 183.281C395.928 183.175 396.238 183.128 396.549 183.143C396.859 183.157 397.163 183.232 397.444 183.364C397.726 183.496 397.978 183.682 398.187 183.912C398.396 184.142 398.558 184.411 398.663 184.703C398.768 184.995 398.814 185.305 398.799 185.616C398.784 185.926 398.708 186.23 398.576 186.511C398.443 186.792 398.256 187.044 398.026 187.252C397.796 187.461 397.526 187.622 397.234 187.726Z" fill="#E6E6E6"/>
<path d="M407.027 160.784L341.774 184.24C341.482 184.346 341.172 184.393 340.862 184.378C340.551 184.364 340.247 184.289 339.966 184.157C339.685 184.025 339.432 183.838 339.223 183.609C339.014 183.379 338.853 183.11 338.748 182.818C338.643 182.526 338.596 182.216 338.611 181.905C338.626 181.595 338.702 181.291 338.835 181.01C338.968 180.729 339.154 180.477 339.385 180.269C339.615 180.06 339.884 179.899 340.176 179.795L405.429 156.339C405.721 156.234 406.031 156.186 406.342 156.201C406.652 156.215 406.956 156.29 407.237 156.422C407.518 156.554 407.771 156.741 407.98 156.97C408.189 157.2 408.351 157.469 408.456 157.761C408.561 158.053 408.607 158.364 408.592 158.674C408.577 158.984 408.501 159.288 408.368 159.569C408.236 159.85 408.049 160.102 407.819 160.31C407.589 160.519 407.32 160.68 407.027 160.784Z" fill="#E6E6E6"/>
<path d="M393.884 213.029L382.716 217.044C381.714 217.403 380.61 217.35 379.647 216.896C378.685 216.442 377.941 215.624 377.581 214.622C377.221 213.62 377.273 212.516 377.727 211.553C378.18 210.59 378.998 209.846 379.999 209.485L391.167 205.471C392.169 205.111 393.273 205.165 394.235 205.619C395.198 206.073 395.942 206.891 396.302 207.893C396.662 208.894 396.609 209.998 396.156 210.962C395.703 211.925 394.885 212.669 393.884 213.029Z" fill="#0070F3"/>
<path d="M305.882 35.9334C306.74 35.9334 307.435 35.2381 307.435 34.3804C307.435 33.5227 306.74 32.8274 305.882 32.8274C305.025 32.8274 304.329 33.5227 304.329 34.3804C304.329 35.2381 305.025 35.9334 305.882 35.9334Z" fill="white"/>
<path d="M127.283 121.724C144.689 101.235 172.93 88.3232 198.967 95.0175C175.517 112.476 158.997 137.666 152.332 166.131C149.801 177.118 148.131 189.602 139.21 196.497C133.66 200.788 126.196 201.961 119.224 201.182C112.252 200.403 105.616 197.859 99.0692 195.338L97.3286 195.531C101.707 169.006 109.878 142.212 127.283 121.724Z" fill="#F0F0F0"/>
<path d="M198.901 95.5778C177.407 101.334 158.272 113.716 144.215 130.966C141.123 134.626 138.628 138.751 136.82 143.188C135.199 147.567 134.78 152.3 135.607 156.896C136.291 161.196 137.49 165.516 137.117 169.908C136.893 172.154 136.197 174.327 135.074 176.284C133.952 178.242 132.428 179.94 130.603 181.267C126.142 184.692 120.716 186.311 115.354 187.709C109.402 189.261 103.194 190.779 98.4104 194.875C97.8307 195.372 97.0945 194.443 97.6733 193.948C105.997 186.821 117.818 187.425 127.09 182.171C131.417 179.72 135.031 175.949 135.81 170.876C136.49 166.44 135.258 161.984 134.527 157.636C133.655 153.164 133.891 148.547 135.214 144.188C136.79 139.673 139.123 135.46 142.113 131.728C148.709 123.218 156.603 115.799 165.504 109.741C175.625 102.772 186.863 97.5847 198.733 94.4048C199.468 94.2083 199.631 95.3826 198.901 95.5778Z" fill="white"/>
<path d="M148.415 125.146C145.841 122.394 144.328 118.818 144.148 115.054C143.968 111.291 145.131 107.586 147.43 104.601C147.897 103.999 148.855 104.697 148.387 105.3C146.241 108.075 145.158 111.527 145.333 115.031C145.508 118.535 146.93 121.861 149.342 124.409C149.866 124.963 148.935 125.697 148.415 125.146Z" fill="white"/>
<path d="M134.972 154.761C142.667 155.086 150.202 152.499 156.074 147.515C156.655 147.021 157.392 147.949 156.811 148.443C150.691 153.618 142.844 156.294 134.837 155.938C134.074 155.904 134.213 154.727 134.972 154.761Z" fill="white"/>
<path d="M175.928 104.313C176.703 105.585 177.781 106.645 179.065 107.398C180.35 108.15 181.802 108.572 183.29 108.625C184.054 108.649 183.914 109.826 183.156 109.802C181.512 109.736 179.909 109.268 178.487 108.44C177.066 107.612 175.869 106.448 175.001 105.05C174.908 104.925 174.866 104.77 174.884 104.615C174.901 104.461 174.977 104.319 175.096 104.218C175.219 104.121 175.376 104.077 175.532 104.094C175.688 104.112 175.83 104.191 175.928 104.313Z" fill="white"/>
<path d="M237.683 177.396C237.206 177.394 236.729 177.392 236.246 177.398C229.833 177.406 223.431 177.934 217.104 178.979C216.613 179.052 216.117 179.133 215.63 179.22C200.413 181.899 185.825 187.379 172.608 195.383C167.352 198.573 162.346 202.158 157.634 206.107C151.126 211.561 144.504 217.993 136.801 220.894C136.001 221.205 135.182 221.467 134.35 221.678L97.6993 197.639C97.6434 197.543 97.5817 197.455 97.5254 197.358L96.0182 196.465C96.247 196.244 96.4891 196.02 96.7179 195.8C96.8501 195.671 96.9904 195.548 97.1226 195.419C97.2133 195.335 97.3045 195.252 97.3816 195.171C97.4117 195.143 97.4421 195.115 97.4668 195.095C97.5438 195.014 97.624 194.947 97.6956 194.874C99.0452 193.619 100.406 192.371 101.778 191.13C101.783 191.122 101.783 191.122 101.797 191.119C112.274 181.69 123.631 173.054 135.937 166.416C136.308 166.216 136.683 166.008 137.07 165.82C142.634 162.858 148.43 160.357 154.402 158.34C157.675 157.246 161.002 156.318 164.369 155.561C173.072 153.62 182.027 153.06 190.905 153.902C208.602 155.584 225.564 162.906 236.832 176.36C237.12 176.704 237.4 177.043 237.683 177.396Z" fill="#F0F0F0"/>
<path d="M237.295 177.807C216.667 169.462 193.934 167.828 172.325 173.138C167.653 174.199 163.177 175.989 159.062 178.443C155.131 180.964 151.947 184.491 149.84 188.658C147.798 192.504 146.154 196.675 143.212 199.958C141.681 201.616 139.817 202.931 137.742 203.818C135.667 204.705 133.428 205.144 131.172 205.105C125.548 205.154 120.241 203.179 115.119 201.067C109.431 198.723 103.561 196.198 97.275 196.588C96.5133 196.635 96.4845 195.451 97.245 195.404C108.181 194.725 117.256 202.324 127.823 203.712C132.754 204.359 137.909 203.525 141.585 199.943C144.8 196.811 146.499 192.512 148.533 188.599C150.529 184.504 153.497 180.959 157.178 178.276C161.155 175.62 165.554 173.66 170.188 172.48C180.578 169.657 191.348 168.486 202.102 169.008C214.379 169.537 226.475 172.162 237.867 176.769C238.572 177.054 237.996 178.091 237.295 177.807Z" fill="white"/>
<path d="M179.183 171.019C178.784 167.272 179.73 163.506 181.852 160.393C183.973 157.279 187.133 155.021 190.766 154.022C191.501 153.823 191.846 154.957 191.109 155.157C187.725 156.081 184.782 158.184 182.812 161.087C180.842 163.991 179.975 167.502 180.367 170.989C180.452 171.746 179.267 171.772 179.183 171.019Z" fill="white"/>
<path d="M150.619 186.572C156.567 191.464 164.141 193.935 171.83 193.491C172.592 193.447 172.621 194.631 171.86 194.676C163.858 195.122 155.981 192.535 149.803 187.43C149.214 186.943 150.034 186.087 150.619 186.572Z" fill="white"/>
<path d="M213.693 170.95C213.546 172.432 213.768 173.927 214.341 175.302C214.914 176.676 215.819 177.887 216.976 178.825C217.57 179.304 216.75 180.16 216.159 179.684C214.887 178.641 213.888 177.303 213.252 175.786C212.616 174.269 212.361 172.619 212.509 170.98C212.51 170.825 212.57 170.675 212.677 170.563C212.785 170.45 212.931 170.382 213.086 170.373C213.243 170.37 213.395 170.429 213.509 170.537C213.622 170.645 213.689 170.794 213.693 170.95Z" fill="white"/>
<path d="M649.65 515.514C668.628 520.167 690.762 515.743 703.245 500.71C681.997 500.416 661.538 492.616 645.488 478.689C639.317 473.296 633.016 466.655 624.824 466.394C619.728 466.231 614.833 468.719 611.058 472.147C607.283 475.576 604.458 479.901 601.676 484.175L600.569 484.802C614.446 498.56 630.671 510.861 649.65 515.514Z" fill="#F0F0F0"/>
<path d="M702.968 500.408C687.856 506.173 671.312 507.03 655.685 502.858C652.305 502.019 649.079 500.653 646.124 498.81C643.304 496.921 641.041 494.312 639.57 491.253C638.142 488.428 637.008 485.374 634.917 482.945C633.829 481.718 632.493 480.735 630.998 480.06C629.503 479.386 627.883 479.035 626.242 479.03C622.156 478.913 618.271 480.271 614.518 481.731C610.35 483.352 606.048 485.102 601.485 484.728C600.933 484.682 600.894 485.543 601.446 485.588C609.384 486.24 616.089 480.849 623.788 479.994C627.381 479.595 631.116 480.276 633.735 482.932C636.025 485.255 637.198 488.404 638.619 491.277C640.01 494.282 642.116 496.901 644.752 498.905C647.603 500.892 650.772 502.381 654.123 503.305C661.632 505.507 669.442 506.515 677.265 506.291C686.194 506.085 695.023 504.353 703.368 501.17C703.885 500.973 703.481 500.212 702.968 500.408Z" fill="white"/>
<path d="M660.638 504.498C660.294 507.214 660.927 509.965 662.423 512.259C663.92 514.552 666.183 516.238 668.809 517.017C669.341 517.173 669.608 516.354 669.075 516.198C666.629 515.477 664.521 513.906 663.132 511.768C661.742 509.629 661.163 507.065 661.498 504.537C661.571 503.987 660.71 503.951 660.638 504.498Z" fill="white"/>
<path d="M640.106 492.781C644.5 489.311 650.039 487.626 655.621 488.06C656.174 488.103 656.212 487.243 655.66 487.199C649.851 486.759 644.089 488.525 639.525 492.145C639.09 492.49 639.674 493.124 640.106 492.781Z" fill="white"/>
<path d="M685.717 505.048C685.631 503.969 685.814 502.886 686.25 501.895C686.687 500.904 687.362 500.038 688.216 499.373C688.655 499.033 688.072 498.399 687.635 498.737C686.695 499.476 685.95 500.434 685.466 501.527C684.982 502.621 684.772 503.816 684.856 505.009C684.855 505.122 684.896 505.231 684.973 505.315C685.049 505.399 685.154 505.45 685.267 505.459C685.381 505.463 685.492 505.423 685.576 505.346C685.66 505.269 685.711 505.162 685.717 505.048Z" fill="white"/>
<path d="M690.959 435.7C690.679 435.904 690.399 436.108 690.112 436.31C686.331 439.037 682.336 441.453 678.164 443.533C677.844 443.699 677.517 443.862 677.193 444.019C667.09 448.923 656.163 451.909 644.97 452.824C640.515 453.184 636.04 453.205 631.582 452.886C625.426 452.446 618.786 451.478 613.014 453.051C612.41 453.208 611.816 453.403 611.236 453.633L599.889 483.403C599.897 483.483 599.899 483.562 599.907 483.642L599.399 484.81C599.628 484.843 599.866 484.872 600.095 484.904C600.227 484.924 600.362 484.936 600.495 484.956C600.584 484.967 600.674 484.977 600.753 484.992C600.783 484.996 600.813 484.999 600.836 485C600.916 485.015 600.992 485.02 601.065 485.033C602.394 485.197 603.727 485.353 605.064 485.499C605.071 485.502 605.071 485.502 605.08 485.498C615.254 486.711 625.536 486.714 635.71 485.505C636.013 485.465 636.323 485.427 636.631 485.374C641.17 484.748 645.649 483.752 650.025 482.397C652.419 481.647 654.773 480.776 657.079 479.788C663.032 477.224 668.545 473.739 673.415 469.462C683.122 460.934 689.993 449.396 690.899 436.672C690.922 436.347 690.943 436.028 690.959 435.7Z" fill="#F0F0F0"/>
<path d="M690.556 435.623C681.961 449.324 669.268 459.969 654.278 466.046C651.075 467.412 647.676 468.264 644.207 468.571C640.818 468.761 637.44 468.04 634.425 466.483C631.583 465.088 628.839 463.331 625.708 462.651C624.1 462.327 622.442 462.346 620.842 462.707C619.242 463.069 617.736 463.764 616.424 464.748C613.09 467.115 610.806 470.538 608.688 473.964C606.337 477.767 603.956 481.755 600.087 484.203C599.618 484.499 600.106 485.209 600.574 484.913C607.304 480.654 609.412 472.313 615.045 466.995C617.673 464.513 621.065 462.809 624.756 463.353C627.983 463.828 630.815 465.637 633.68 467.074C636.599 468.636 639.857 469.46 643.169 469.472C646.642 469.343 650.068 468.623 653.3 467.344C660.622 464.581 667.464 460.684 673.575 455.795C680.581 450.255 686.587 443.556 691.334 435.99C691.628 435.522 690.847 435.157 690.556 435.623Z" fill="white"/>
<path d="M659.22 464.374C660.581 466.75 662.742 468.565 665.318 469.495C667.894 470.425 670.717 470.409 673.282 469.45C673.8 469.255 673.52 468.44 673.001 468.636C670.614 469.533 667.985 469.548 665.588 468.677C663.191 467.806 661.185 466.107 659.93 463.887C659.657 463.405 658.949 463.894 659.22 464.374Z" fill="white"/>
<path d="M635.772 467.38C637.191 461.965 640.6 457.284 645.317 454.27C645.785 453.971 645.298 453.261 644.831 453.559C639.927 456.705 636.39 461.584 634.925 467.222C634.786 467.759 635.633 467.915 635.772 467.38Z" fill="white"/>
<path d="M679.575 449.714C678.857 448.904 678.351 447.929 678.103 446.875C677.855 445.822 677.873 444.723 678.154 443.678C678.3 443.142 677.453 442.988 677.307 443.52C677.002 444.676 676.984 445.889 677.255 447.054C677.527 448.219 678.079 449.299 678.865 450.201C678.932 450.292 679.031 450.354 679.142 450.375C679.253 450.396 679.368 450.374 679.463 450.313C679.557 450.248 679.621 450.148 679.642 450.036C679.663 449.924 679.639 449.808 679.575 449.714Z" fill="white"/>
<path d="M725.697 333.101L696.757 381.801L697.857 382.381L688.057 400.961L686.017 399.881L679.577 410.711L681.177 411.631L670.677 429.811L668.857 428.761L574.427 587.681C571.95 591.84 567.925 594.847 563.234 596.041C558.543 597.235 553.57 596.52 549.407 594.051L373.857 489.741C369.697 487.265 366.69 483.24 365.496 478.549C364.302 473.858 365.018 468.885 367.487 464.721L518.757 210.141C521.233 205.982 525.258 202.976 529.949 201.782C534.64 200.587 539.613 201.303 543.777 203.771L719.327 308.081C723.484 310.559 726.489 314.584 727.684 319.275C728.878 323.965 728.163 328.937 725.697 333.101Z" fill="#3F3D56"/>
<path d="M555.663 584.224L379.495 479.548C378.213 478.784 377.286 477.543 376.918 476.098C376.55 474.652 376.771 473.119 377.531 471.835L529.805 215.562C530.569 214.28 531.81 213.353 533.255 212.985C534.701 212.617 536.234 212.838 537.518 213.598L713.686 318.275C714.968 319.039 715.894 320.279 716.262 321.725C716.63 323.171 716.41 324.704 715.649 325.987L563.376 582.261C562.612 583.543 561.371 584.469 559.925 584.837C558.479 585.206 556.947 584.985 555.663 584.224Z" fill="white"/>
<path d="M628.028 261.886C628.886 261.886 629.581 261.191 629.581 260.333C629.581 259.476 628.886 258.78 628.028 258.78C627.17 258.78 626.475 259.476 626.475 260.333C626.475 261.191 627.17 261.886 628.028 261.886Z" fill="white"/>
<path d="M618.417 445.465L471.36 358.086C470.899 357.814 470.496 357.454 470.174 357.027C469.853 356.599 469.618 356.112 469.485 355.593C469.352 355.075 469.323 354.535 469.399 354.005C469.475 353.475 469.655 352.966 469.928 352.506C470.202 352.045 470.563 351.644 470.992 351.324C471.421 351.004 471.909 350.771 472.428 350.64C472.947 350.509 473.487 350.482 474.017 350.56C474.546 350.638 475.055 350.82 475.514 351.095L622.571 438.474C623.032 438.746 623.435 439.106 623.757 439.533C624.079 439.961 624.313 440.448 624.446 440.967C624.579 441.485 624.608 442.025 624.532 442.555C624.456 443.085 624.276 443.594 624.003 444.054C623.73 444.515 623.368 444.916 622.939 445.236C622.51 445.556 622.022 445.789 621.503 445.92C620.984 446.051 620.444 446.078 619.915 446C619.385 445.922 618.876 445.74 618.417 445.465Z" fill="#E6E6E6"/>
<path d="M559.698 431.925L511.327 403.184C510.868 402.911 510.467 402.551 510.147 402.123C509.828 401.695 509.595 401.209 509.463 400.691C509.331 400.174 509.303 399.636 509.379 399.107C509.456 398.578 509.635 398.07 509.908 397.611C510.181 397.152 510.541 396.751 510.969 396.431C511.397 396.111 511.883 395.879 512.401 395.747C512.919 395.616 513.457 395.587 513.986 395.664C514.514 395.74 515.022 395.92 515.481 396.193L563.852 424.934C564.312 425.207 564.712 425.567 565.032 425.995C565.352 426.423 565.584 426.909 565.716 427.427C565.848 427.944 565.876 428.482 565.8 429.011C565.723 429.539 565.544 430.048 565.271 430.507C564.998 430.966 564.638 431.367 564.21 431.686C563.782 432.006 563.296 432.238 562.778 432.37C562.261 432.502 561.723 432.53 561.194 432.454C560.666 432.378 560.157 432.198 559.698 431.925Z" fill="#E6E6E6"/>
<path d="M540.68 463.932L492.309 435.191C491.382 434.64 490.712 433.744 490.446 432.699C490.18 431.654 490.341 430.546 490.891 429.619C491.442 428.692 492.339 428.022 493.384 427.755C494.428 427.489 495.536 427.649 496.463 428.2L544.834 456.941C545.293 457.214 545.694 457.574 546.014 458.002C546.334 458.43 546.566 458.916 546.698 459.434C546.83 459.951 546.858 460.489 546.782 461.018C546.705 461.546 546.526 462.055 546.253 462.514C545.98 462.973 545.62 463.374 545.192 463.693C544.764 464.013 544.278 464.245 543.76 464.377C543.243 464.509 542.705 464.537 542.176 464.461C541.648 464.385 541.139 464.205 540.68 463.932Z" fill="#E6E6E6"/>
<path d="M530.94 480.326L482.569 451.585C482.108 451.313 481.706 450.952 481.385 450.525C481.064 450.097 480.831 449.61 480.698 449.092C480.565 448.574 480.536 448.035 480.613 447.505C480.689 446.976 480.868 446.467 481.142 446.007C481.415 445.547 481.776 445.146 482.204 444.826C482.633 444.506 483.12 444.274 483.639 444.143C484.157 444.011 484.696 443.984 485.226 444.061C485.755 444.138 486.263 444.319 486.722 444.594L535.093 473.335C535.555 473.607 535.958 473.967 536.28 474.394C536.602 474.822 536.836 475.309 536.969 475.828C537.102 476.346 537.131 476.886 537.055 477.416C536.979 477.946 536.8 478.456 536.526 478.916C536.253 479.376 535.891 479.778 535.462 480.098C535.033 480.418 534.545 480.65 534.026 480.781C533.507 480.912 532.967 480.939 532.437 480.861C531.908 480.783 531.399 480.601 530.94 480.326Z" fill="#E6E6E6"/>
<path d="M577.451 463.823L474.824 402.844C473.901 402.291 473.236 401.395 472.972 400.352C472.709 399.309 472.87 398.204 473.419 397.28C473.969 396.355 474.862 395.686 475.904 395.418C476.946 395.151 478.051 395.307 478.978 395.853L581.605 456.832C582.066 457.104 582.469 457.464 582.791 457.892C583.113 458.32 583.347 458.807 583.48 459.325C583.613 459.844 583.643 460.383 583.567 460.913C583.491 461.443 583.311 461.953 583.037 462.413C582.764 462.873 582.402 463.275 581.973 463.595C581.544 463.915 581.056 464.148 580.537 464.279C580.018 464.41 579.478 464.437 578.948 464.359C578.419 464.28 577.91 464.099 577.451 463.823Z" fill="#E6E6E6"/>
<path d="M557.89 541.755L540.327 531.319C538.753 530.381 537.615 528.857 537.164 527.081C536.713 525.305 536.985 523.423 537.921 521.847C538.857 520.272 540.38 519.133 542.156 518.68C543.931 518.227 545.814 518.497 547.39 519.431L564.954 529.867C566.53 530.804 567.67 532.328 568.122 534.105C568.575 535.882 568.303 537.766 567.366 539.343C566.429 540.919 564.905 542.059 563.128 542.511C561.35 542.964 559.467 542.692 557.89 541.755Z" fill="black"/>
<path d="M590.659 372.314C610.541 372.314 626.659 356.197 626.659 336.314C626.659 316.432 610.541 300.314 590.659 300.314C570.776 300.314 554.659 316.432 554.659 336.314C554.659 356.197 570.776 372.314 590.659 372.314Z" fill="black"/>
<path d="M0.424072 482.606H487.605V200.557C487.602 198.444 486.762 196.418 485.268 194.924C483.773 193.43 481.747 192.589 479.634 192.587H8.39507C6.28179 192.589 4.25576 193.43 2.76143 194.924C1.2671 196.418 0.426513 198.444 0.424072 200.557V482.606Z" fill="#CACACA"/>
<path d="M472.553 203.611H15.4761V463.101H472.553V203.611Z" fill="white"/>
<path d="M6.55376e-10 474.973V509.778C-1.57581e-05 511.221 0.284166 512.65 0.836319 513.983C1.38847 515.316 2.19779 516.527 3.21805 517.548C4.23831 518.568 5.44955 519.377 6.78259 519.929C8.11564 520.482 9.54438 520.766 10.9873 520.766H190.802V589.455H188.413C188.226 589.455 188.04 589.491 187.867 589.563C187.694 589.635 187.536 589.74 187.404 589.872C187.271 590.005 187.166 590.162 187.094 590.336C187.023 590.509 186.986 590.694 186.986 590.882V595.659C186.986 595.847 187.023 596.032 187.094 596.206C187.166 596.379 187.271 596.536 187.404 596.669C187.536 596.801 187.694 596.906 187.867 596.978C188.04 597.05 188.226 597.087 188.413 597.087H300.04C300.227 597.087 300.413 597.05 300.586 596.978C300.759 596.906 300.916 596.801 301.049 596.669C301.182 596.536 301.287 596.379 301.358 596.206C301.43 596.032 301.467 595.847 301.467 595.659V590.882C301.467 590.694 301.43 590.509 301.358 590.336C301.287 590.162 301.182 590.005 301.049 589.872C300.916 589.74 300.759 589.635 300.586 589.563C300.413 589.491 300.227 589.455 300.04 589.455H297.651V520.766H477.466C478.908 520.766 480.337 520.482 481.67 519.93C483.003 519.377 484.215 518.568 485.235 517.548C486.255 516.527 487.064 515.316 487.617 513.983C488.169 512.65 488.453 511.221 488.453 509.778V474.973L6.55376e-10 474.973Z" fill="white"/>
<path d="M406.413 290.394H189.959C188.595 290.394 187.286 289.852 186.321 288.887C185.357 287.923 184.814 286.614 184.814 285.249C184.814 283.885 185.357 282.576 186.321 281.611C187.286 280.646 188.595 280.104 189.959 280.104H406.413C407.778 280.104 409.086 280.646 410.051 281.611C411.016 282.576 411.558 283.885 411.558 285.249C411.558 286.614 411.016 287.923 410.051 288.887C409.086 289.852 407.778 290.394 406.413 290.394Z" fill="#E6E6E6"/>
<path d="M333.785 313.62H262.587C261.223 313.62 259.914 313.078 258.949 312.113C257.984 311.148 257.442 309.839 257.442 308.475C257.442 307.11 257.984 305.801 258.949 304.836C259.914 303.871 261.223 303.329 262.587 303.329H333.785C335.15 303.329 336.458 303.871 337.423 304.836C338.388 305.801 338.93 307.11 338.93 308.475C338.93 309.839 338.388 311.148 337.423 312.113C336.458 313.078 335.15 313.62 333.785 313.62Z" fill="#E6E6E6"/>
<path d="M333.785 360.731H262.587C261.223 360.731 259.914 360.189 258.949 359.224C257.984 358.259 257.442 356.951 257.442 355.586C257.442 354.221 257.984 352.913 258.949 351.948C259.914 350.983 261.223 350.441 262.587 350.441H333.785C335.15 350.441 336.458 350.983 337.423 351.948C338.388 352.913 338.93 354.221 338.93 355.586C338.93 356.951 338.388 358.259 337.423 359.224C336.458 360.189 335.15 360.731 333.785 360.731Z" fill="#E6E6E6"/>
<path d="M333.785 384.861H262.587C261.912 384.861 261.243 384.728 260.618 384.469C259.994 384.211 259.427 383.832 258.949 383.354C258.472 382.876 258.093 382.309 257.834 381.685C257.575 381.061 257.442 380.392 257.442 379.716C257.442 379.04 257.575 378.371 257.834 377.747C258.093 377.123 258.472 376.556 258.949 376.078C259.427 375.6 259.994 375.221 260.618 374.963C261.243 374.704 261.912 374.571 262.587 374.571H333.785C334.461 374.571 335.13 374.704 335.754 374.963C336.378 375.221 336.945 375.6 337.423 376.078C337.901 376.556 338.28 377.123 338.538 377.747C338.797 378.371 338.93 379.04 338.93 379.716C338.93 380.392 338.797 381.061 338.538 381.685C338.28 382.309 337.901 382.876 337.423 383.354C336.945 383.832 336.378 384.211 335.754 384.469C335.13 384.728 334.461 384.861 333.785 384.861Z" fill="#E6E6E6"/>
<path d="M373.715 336.845H222.657C221.293 336.845 219.984 336.303 219.019 335.338C218.055 334.373 217.512 333.064 217.512 331.7C217.512 330.335 218.055 329.027 219.019 328.062C219.984 327.097 221.293 326.555 222.657 326.555H373.715C375.08 326.555 376.388 327.097 377.353 328.062C378.318 329.027 378.86 330.335 378.86 331.7C378.86 333.064 378.318 334.373 377.353 335.338C376.388 336.303 375.08 336.845 373.715 336.845Z" fill="#E6E6E6"/>
<path d="M402.81 434.266H376.958C374.638 434.266 372.412 433.344 370.772 431.703C369.131 430.063 368.209 427.837 368.209 425.517C368.209 423.196 369.131 420.971 370.772 419.33C372.412 417.69 374.638 416.768 376.958 416.768H402.81C405.13 416.768 407.355 417.69 408.996 419.33C410.637 420.971 411.559 423.196 411.559 425.517C411.559 427.837 410.637 430.063 408.996 431.703C407.355 433.344 405.13 434.266 402.81 434.266Z" fill="black"/>
<path d="M121.895 370.766C146.747 370.766 166.895 350.619 166.895 325.766C166.895 300.913 146.747 280.766 121.895 280.766C97.0417 280.766 76.8945 300.913 76.8945 325.766C76.8945 350.619 97.0417 370.766 121.895 370.766Z" fill="black"/>
<path d="M648.485 598.943H1.19066C0.875467 598.942 0.573504 598.816 0.350952 598.593C0.1284 598.37 0.00341797 598.067 0.00341797 597.752C0.00341797 597.437 0.1284 597.134 0.350952 596.911C0.573504 596.688 0.875467 596.562 1.19066 596.561H648.485C648.8 596.562 649.102 596.688 649.324 596.911C649.547 597.134 649.672 597.437 649.672 597.752C649.672 598.067 649.547 598.37 649.324 598.593C649.102 598.816 648.8 598.942 648.485 598.943Z" fill="#CACACA"/>
<path d="M243.802 198.099C244.739 198.099 245.498 197.339 245.498 196.403C245.498 195.466 244.739 194.707 243.802 194.707C242.866 194.707 242.106 195.466 242.106 196.403C242.106 197.339 242.866 198.099 243.802 198.099Z" fill="white"/>
</g>
<defs>
<clipPath id="clip0_190_60">
<rect width="728.252" height="598.943" fill="white"/>
</clipPath>
</defs>
</svg>
