<svg width="" height="" viewBox="0 0 90 90" fill="none" xmlns="http://www.w3.org/2000/svg">
<path d="M89.4496 13.766C89.3759 13.5118 89.2353 13.2821 89.0423 13.101C88.8493 12.9199 88.6111 12.794 88.3527 12.7366L79.3035 10.6922L77.2591 1.643C77.201 1.3853 77.0748 1.14792 76.8937 0.955636C76.7125 0.763354 76.4831 0.623219 76.2293 0.549862C75.9755 0.476504 75.7067 0.472613 75.4509 0.538594C75.1951 0.604575 74.9617 0.73801 74.7751 0.924969L64.3674 11.3343C55.5603 6.01987 45.1126 4.11283 34.9959 5.97308C24.8792 7.83333 15.7932 13.3322 9.45272 21.432C3.1122 29.5317 -0.0443417 39.6721 0.57879 49.9396C1.20192 60.207 5.56162 69.8913 12.8351 77.1648C20.1087 84.4383 29.7929 88.798 40.0604 89.4212C50.3278 90.0443 60.4682 86.8877 68.568 80.5472C76.6677 74.2067 82.1666 65.1208 84.0269 55.0041C85.8871 44.8873 83.9801 34.4396 78.6656 25.6325L89.0775 15.2206C89.2639 15.0335 89.3967 14.7999 89.4621 14.5441C89.5275 14.2883 89.5232 14.0196 89.4496 13.766ZM81.7664 47.3937C81.7652 56.014 78.9193 64.3929 73.6702 71.2308C68.4211 78.0687 61.0621 82.9832 52.7349 85.212C44.4077 87.4407 35.5778 86.8592 27.6148 83.5576C19.6518 80.256 13.0009 74.4188 8.6939 66.9516C4.38687 59.4844 2.66442 50.8046 3.79376 42.2586C4.9231 33.7126 8.8411 25.7781 14.94 19.686C21.0388 13.5939 28.9777 9.68479 37.5249 8.56497C46.0722 7.44515 54.7501 9.17727 62.2125 13.4926L57.4327 18.2725C57.3916 18.3192 57.3535 18.3685 57.3188 18.4201C50.417 14.9064 42.4884 13.9696 34.9578 15.7782C27.4273 17.5867 20.7888 22.022 16.2355 28.2867C11.6822 34.5515 9.51273 42.2349 10.1171 49.956C10.7214 57.677 14.0599 64.9293 19.5325 70.4094C25.005 75.8894 32.2528 79.2377 39.973 79.8526C47.6933 80.4674 55.3796 78.3084 61.6506 73.7637C67.9215 69.2189 72.3658 62.5864 74.1846 55.0583C76.0034 47.5303 75.0774 39.6003 71.5731 32.6938C71.6273 32.6555 71.6789 32.6135 71.7275 32.5681L76.5073 27.7883C79.9591 33.7451 81.7735 40.509 81.7664 47.3937ZM68.069 32.4475C71.6952 38.6378 72.9413 45.9373 71.5741 52.98C70.2069 60.0227 66.3202 66.3259 60.6412 70.7098C54.9623 75.0937 47.8805 77.2579 40.7211 76.7974C33.5617 76.3369 26.8155 73.2832 21.745 68.2079C16.6745 63.1325 13.6273 56.3834 13.1737 49.2235C12.7201 42.0637 14.8911 34.9839 19.2805 29.3092C23.6699 23.6345 29.9767 19.7538 37.0208 18.3934C44.0648 17.033 51.3631 18.2862 57.5499 21.9183L59.105 28.8067L57.6132 30.2984C53.1646 26.392 47.3712 24.3687 41.4579 24.6563C35.5446 24.9439 29.9749 27.5198 25.9264 31.8395C21.8779 36.1593 19.6679 41.8841 19.7638 47.8036C19.8597 53.7232 22.2539 59.3734 26.4402 63.5597C30.6265 67.746 36.2768 70.1402 42.1963 70.2361C48.1159 70.332 53.8407 68.1221 58.1604 64.0736C62.4801 60.0251 65.0561 54.4554 65.3437 48.542C65.6313 42.6287 63.608 36.8353 59.7015 32.3867L61.1933 30.895L68.069 32.4475ZM48.9555 47.3937C48.9607 48.8052 48.4972 50.1785 47.6376 51.2981C46.778 52.4177 45.5711 53.2202 44.2061 53.5798C42.8412 53.9394 41.3955 53.8356 40.0959 53.2848C38.7962 52.734 37.7163 51.7673 37.0254 50.5364C36.3345 49.3055 36.0718 47.8801 36.2786 46.4838C36.4853 45.0875 37.1498 43.7994 38.1677 42.8215C39.1856 41.8436 40.4994 41.2313 41.9028 41.0807C43.3063 40.9302 44.72 41.2498 45.9222 41.9894L41.5617 46.3499C41.4207 46.4862 41.3083 46.6491 41.2309 46.8293C41.1536 47.0095 41.1129 47.2032 41.1112 47.3993C41.1096 47.5953 41.147 47.7898 41.2212 47.9712C41.2955 48.1527 41.4052 48.3175 41.5439 48.4561C41.6825 48.5947 41.8474 48.7043 42.0289 48.7785C42.2104 48.8527 42.4048 48.8901 42.6009 48.8883C42.7969 48.8866 42.9907 48.8458 43.1708 48.7684C43.3509 48.691 43.5138 48.5784 43.65 48.4374L48.0105 44.0769C48.6279 45.0731 48.9551 46.2217 48.9555 47.3937ZM48.0476 39.864C46.1452 38.4861 43.7935 37.8755 41.461 38.154C39.1286 38.4325 36.9867 39.5796 35.4623 41.3668C33.9378 43.154 33.1427 45.4499 33.2354 47.7971C33.3281 50.1443 34.3019 52.3703 35.9625 54.0317C37.6232 55.693 39.8489 56.6676 42.196 56.7613C44.5432 56.855 46.8395 56.0608 48.6272 54.5371C50.415 53.0133 51.563 50.8719 51.8424 48.5396C52.1219 46.2073 51.5123 43.8553 50.1351 41.9523L57.609 34.4784C60.9578 38.3689 62.6681 43.4061 62.3804 48.5314C62.0927 53.6566 59.8295 58.4708 56.0664 61.9622C52.3032 65.4535 47.3332 67.3502 42.2008 67.2536C37.0684 67.1569 32.1733 65.0745 28.5442 61.444C24.9151 57.8135 22.8347 52.9175 22.7402 47.7851C22.6456 42.6526 24.5443 37.6834 28.0372 33.9216C31.53 30.1599 36.3451 27.8986 41.4705 27.613C46.5959 27.3274 51.6324 29.0397 55.5216 32.3901L48.0476 39.864ZM75.7598 24.3593L70.218 29.9002L69.3869 29.7129L69.3548 29.7053L61.9594 28.0406L60.0955 19.7862L74.9725 4.90663L76.6322 12.2523C76.6937 12.5246 76.8312 12.7739 77.0286 12.9714C77.226 13.1688 77.4753 13.3062 77.7476 13.3678L85.0933 15.0274L75.7598 24.3593Z" fill="#1F1D1C"/>
</svg>
